<svg width="50" height="50" viewBox="0 0 50 50" fill="none" xmlns="http://www.w3.org/2000/svg">
<circle cx="25" cy="25" r="24" stroke="#FF7675" stroke-width="2"/>
<path d="M3.856 15.256V22.912H5.44C4.648 24.592 3.448 26.008 1.816 27.112L2.632 28.48C3.592 27.76 4.456 26.92 5.2 25.984H12.016C11.968 29.872 11.92 32.176 11.872 32.944C11.824 33.664 11.728 34.192 11.56 34.48C11.368 34.768 10.984 34.936 10.408 34.936C9.832 34.936 9.232 34.912 8.608 34.888L9.04 36.328H9.952C11.296 36.328 12.16 36.16 12.544 35.824C12.952 35.512 13.216 34.888 13.36 33.976C13.504 33.064 13.6 29.896 13.672 24.52H6.184C6.448 24.016 6.688 23.488 6.928 22.912H12.904V15.256H3.856ZM11.32 21.52H5.416V19.72H11.32V21.52ZM5.416 18.448V16.624H11.32V18.448H5.416ZM3.52 28.024V33.88H10.24V32.464H5.008V28.024H3.52ZM7.888 29.656C8.8 30.136 9.688 30.784 10.552 31.552L11.272 30.424C10.432 29.728 9.52 29.128 8.536 28.6C8.8 28.072 9.04 27.52 9.232 26.896L7.912 26.68C7.408 28.312 6.448 29.584 5.056 30.544L5.92 31.624C6.688 31.072 7.336 30.424 7.888 29.656ZM15.952 14.32C15.568 18.256 14.704 21.328 13.36 23.536L14.656 24.472C15.52 23.176 16.216 21.496 16.744 19.408H21.544C21.208 21.424 20.824 23.224 20.368 24.808L21.952 25.24C22.456 23.152 22.864 21.04 23.176 18.88V17.776H17.104C17.272 16.792 17.416 15.736 17.56 14.584L15.952 14.32ZM17.536 21.736C17.512 24.808 17.272 27.352 16.84 29.344C16.24 31.696 15.04 33.664 13.216 35.224L14.272 36.544C16.432 34.72 17.824 32.416 18.424 29.632L18.472 29.368C19.552 32.128 21.088 34.48 23.104 36.424L24.184 35.152C21.736 32.992 19.984 30.064 18.928 26.368C19.072 24.976 19.144 23.416 19.144 21.736H17.536ZM33.928 14.416V18.136H26.896V19.648H31.792L33.112 22.24H27.376V23.728H36.16V25.528H27.88V26.968H36.16V28.744H26.656V30.232H34.24C32.8 31.816 30.136 33.208 26.248 34.432L27.16 35.92C31.48 34.312 34.432 32.416 35.968 30.232H36.16V36.328H37.84V30.232H38.056C39.784 32.584 42.76 34.48 46.984 35.92L47.704 34.408C44.152 33.4 41.536 32.008 39.832 30.232H47.344V28.744H37.84V26.968H46.12V25.528H37.84V23.728H46.576V22.24H40.672L41.776 19.648H47.104V18.136H39.688V14.416H38.104V18.136H35.512V14.416H33.928ZM39.016 22.24H34.768L33.472 19.648H40.096L39.016 22.24ZM43.36 14.44C42.784 15.52 42.136 16.456 41.368 17.248L42.544 18.088C43.36 17.224 44.056 16.24 44.656 15.088L43.36 14.44ZM30.568 14.512L29.224 15.04C29.8 15.88 30.328 16.864 30.856 17.992L32.224 17.416C31.768 16.384 31.216 15.424 30.568 14.512Z" fill="#FF7675"/>
</svg>
